<mxfile host="Electron" modified="2024-09-01T19:31:24.100Z" agent="Mozilla/5.0 (Windows NT 10.0; Win64; x64) AppleWebKit/537.36 (KHTML, like Gecko) draw.io/24.5.3 Chrome/124.0.6367.207 Electron/30.0.6 Safari/537.36" etag="w7BlvW2nSpL1WJh8qLuJ" version="24.5.3" type="device">
  <diagram name="Page-1" id="e7e014a7-5840-1c2e-5031-d8a46d1fe8dd">
    <mxGraphModel dx="1728" dy="997" grid="1" gridSize="10" guides="1" tooltips="1" connect="1" arrows="1" fold="1" page="1" pageScale="1" pageWidth="1169" pageHeight="826" background="none" math="0" shadow="0">
      <root>
        <mxCell id="0" />
        <mxCell id="1" parent="0" />
        <mxCell id="2" value="Maintainer" style="swimlane;whiteSpace=wrap" parent="1" vertex="1">
          <mxGeometry x="30" y="40" width="280" height="770" as="geometry" />
        </mxCell>
        <mxCell id="J4MIndiPR7FRYqG2Qvyo-49" style="edgeStyle=orthogonalEdgeStyle;rounded=0;orthogonalLoop=1;jettySize=auto;html=1;exitX=0.5;exitY=1;exitDx=0;exitDy=0;entryX=0.5;entryY=0;entryDx=0;entryDy=0;" edge="1" parent="2" source="5" target="7">
          <mxGeometry relative="1" as="geometry" />
        </mxCell>
        <mxCell id="5" value="" style="ellipse;shape=startState;fillColor=#000000;strokeColor=#ff0000;" parent="2" vertex="1">
          <mxGeometry x="120" y="40" width="30" height="30" as="geometry" />
        </mxCell>
        <mxCell id="7" value="Crea un nuovo progetto" style="" parent="2" vertex="1">
          <mxGeometry x="60" y="110" width="150" height="50" as="geometry" />
        </mxCell>
        <mxCell id="J4MIndiPR7FRYqG2Qvyo-53" value="Definisce progetto" style="" vertex="1" parent="2">
          <mxGeometry x="60" y="190" width="150" height="50" as="geometry" />
        </mxCell>
        <mxCell id="J4MIndiPR7FRYqG2Qvyo-54" style="edgeStyle=orthogonalEdgeStyle;rounded=0;orthogonalLoop=1;jettySize=auto;html=1;entryX=0.5;entryY=0;entryDx=0;entryDy=0;" edge="1" parent="2" source="7" target="J4MIndiPR7FRYqG2Qvyo-53">
          <mxGeometry relative="1" as="geometry" />
        </mxCell>
        <mxCell id="3" value="Manager" style="swimlane;whiteSpace=wrap;startSize=23;" parent="1" vertex="1">
          <mxGeometry x="310" y="40" width="280" height="770" as="geometry" />
        </mxCell>
        <mxCell id="J4MIndiPR7FRYqG2Qvyo-52" style="edgeStyle=orthogonalEdgeStyle;rounded=0;orthogonalLoop=1;jettySize=auto;html=1;entryX=0.5;entryY=0;entryDx=0;entryDy=0;" edge="1" parent="3" source="J4MIndiPR7FRYqG2Qvyo-50" target="J4MIndiPR7FRYqG2Qvyo-51">
          <mxGeometry relative="1" as="geometry" />
        </mxCell>
        <mxCell id="J4MIndiPR7FRYqG2Qvyo-50" value="Definisce attività" style="" vertex="1" parent="3">
          <mxGeometry x="47.5" y="190" width="150" height="50" as="geometry" />
        </mxCell>
        <mxCell id="J4MIndiPR7FRYqG2Qvyo-51" value="Assegna utenti" style="" vertex="1" parent="3">
          <mxGeometry x="47.5" y="270" width="150" height="50" as="geometry" />
        </mxCell>
        <mxCell id="4" value="Assignee" style="swimlane;whiteSpace=wrap" parent="1" vertex="1">
          <mxGeometry x="590" y="40" width="280" height="770" as="geometry" />
        </mxCell>
        <mxCell id="J4MIndiPR7FRYqG2Qvyo-70" style="edgeStyle=orthogonalEdgeStyle;rounded=0;orthogonalLoop=1;jettySize=auto;html=1;entryX=0.5;entryY=0;entryDx=0;entryDy=0;" edge="1" parent="4" source="J4MIndiPR7FRYqG2Qvyo-56" target="J4MIndiPR7FRYqG2Qvyo-69">
          <mxGeometry relative="1" as="geometry" />
        </mxCell>
        <mxCell id="J4MIndiPR7FRYqG2Qvyo-56" value="Imposta attività&#xa;stato (in corso)" style="" vertex="1" parent="4">
          <mxGeometry x="50" y="270" width="150" height="50" as="geometry" />
        </mxCell>
        <mxCell id="J4MIndiPR7FRYqG2Qvyo-68" value="Imposta attività&#xa;stato (in revisione)" style="" vertex="1" parent="4">
          <mxGeometry x="50" y="410" width="150" height="50" as="geometry" />
        </mxCell>
        <mxCell id="J4MIndiPR7FRYqG2Qvyo-73" style="edgeStyle=orthogonalEdgeStyle;rounded=0;orthogonalLoop=1;jettySize=auto;html=1;entryX=0.5;entryY=0;entryDx=0;entryDy=0;" edge="1" parent="4" source="J4MIndiPR7FRYqG2Qvyo-69" target="J4MIndiPR7FRYqG2Qvyo-68">
          <mxGeometry relative="1" as="geometry" />
        </mxCell>
        <mxCell id="J4MIndiPR7FRYqG2Qvyo-69" value="Svolge lavoro" style="" vertex="1" parent="4">
          <mxGeometry x="50" y="340" width="150" height="50" as="geometry" />
        </mxCell>
        <mxCell id="J4MIndiPR7FRYqG2Qvyo-41" value="Reviewer" style="swimlane;whiteSpace=wrap" vertex="1" parent="1">
          <mxGeometry x="870" y="40" width="280" height="770" as="geometry" />
        </mxCell>
        <mxCell id="J4MIndiPR7FRYqG2Qvyo-60" style="edgeStyle=orthogonalEdgeStyle;rounded=0;orthogonalLoop=1;jettySize=auto;html=1;entryX=0.5;entryY=0;entryDx=0;entryDy=0;" edge="1" parent="J4MIndiPR7FRYqG2Qvyo-41" source="J4MIndiPR7FRYqG2Qvyo-58" target="21">
          <mxGeometry relative="1" as="geometry" />
        </mxCell>
        <mxCell id="J4MIndiPR7FRYqG2Qvyo-58" value="Svolge verifica" style="" vertex="1" parent="J4MIndiPR7FRYqG2Qvyo-41">
          <mxGeometry x="75" y="410" width="130" height="50" as="geometry" />
        </mxCell>
        <mxCell id="J4MIndiPR7FRYqG2Qvyo-64" style="edgeStyle=orthogonalEdgeStyle;rounded=0;orthogonalLoop=1;jettySize=auto;html=1;entryX=0.5;entryY=0;entryDx=0;entryDy=0;exitX=0;exitY=0.5;exitDx=0;exitDy=0;" edge="1" parent="J4MIndiPR7FRYqG2Qvyo-41" source="21" target="J4MIndiPR7FRYqG2Qvyo-62">
          <mxGeometry relative="1" as="geometry">
            <mxPoint x="70" y="550" as="targetPoint" />
            <Array as="points">
              <mxPoint x="70" y="513" />
            </Array>
          </mxGeometry>
        </mxCell>
        <mxCell id="J4MIndiPR7FRYqG2Qvyo-65" style="edgeStyle=orthogonalEdgeStyle;rounded=0;orthogonalLoop=1;jettySize=auto;html=1;entryX=0.5;entryY=0;entryDx=0;entryDy=0;exitX=1;exitY=0.5;exitDx=0;exitDy=0;" edge="1" parent="J4MIndiPR7FRYqG2Qvyo-41" source="21" target="J4MIndiPR7FRYqG2Qvyo-63">
          <mxGeometry relative="1" as="geometry">
            <mxPoint x="215" y="550" as="targetPoint" />
            <Array as="points">
              <mxPoint x="215" y="513" />
            </Array>
          </mxGeometry>
        </mxCell>
        <mxCell id="21" value="completo" style="rhombus;fillColor=#ffffc0;strokeColor=#ff0000;" parent="J4MIndiPR7FRYqG2Qvyo-41" vertex="1">
          <mxGeometry x="100" y="493" width="80" height="40" as="geometry" />
        </mxCell>
        <mxCell id="J4MIndiPR7FRYqG2Qvyo-62" value="Notifica manuale&#xa;assignee" style="" vertex="1" parent="J4MIndiPR7FRYqG2Qvyo-41">
          <mxGeometry x="15" y="550" width="110" height="50" as="geometry" />
        </mxCell>
        <mxCell id="J4MIndiPR7FRYqG2Qvyo-66" style="edgeStyle=orthogonalEdgeStyle;rounded=0;orthogonalLoop=1;jettySize=auto;html=1;entryX=0.487;entryY=0.175;entryDx=0;entryDy=0;exitX=0.5;exitY=1;exitDx=0;exitDy=0;entryPerimeter=0;" edge="1" parent="J4MIndiPR7FRYqG2Qvyo-41" source="J4MIndiPR7FRYqG2Qvyo-63" target="38">
          <mxGeometry relative="1" as="geometry">
            <mxPoint x="215" y="600" as="sourcePoint" />
            <Array as="points">
              <mxPoint x="215" y="675" />
            </Array>
          </mxGeometry>
        </mxCell>
        <mxCell id="J4MIndiPR7FRYqG2Qvyo-63" value="Imposta attività&#xa;stato (chiusa)" style="" vertex="1" parent="J4MIndiPR7FRYqG2Qvyo-41">
          <mxGeometry x="155" y="550" width="120" height="50" as="geometry" />
        </mxCell>
        <mxCell id="38" value="" style="ellipse;shape=endState;fillColor=#000000;strokeColor=#ff0000" parent="J4MIndiPR7FRYqG2Qvyo-41" vertex="1">
          <mxGeometry x="200" y="670" width="30" height="30" as="geometry" />
        </mxCell>
        <mxCell id="J4MIndiPR7FRYqG2Qvyo-77" value="No" style="text;html=1;align=center;verticalAlign=middle;whiteSpace=wrap;rounded=0;" vertex="1" parent="J4MIndiPR7FRYqG2Qvyo-41">
          <mxGeometry x="60" y="493" width="30" height="17" as="geometry" />
        </mxCell>
        <mxCell id="J4MIndiPR7FRYqG2Qvyo-78" value="Sì" style="text;html=1;align=center;verticalAlign=middle;whiteSpace=wrap;rounded=0;" vertex="1" parent="J4MIndiPR7FRYqG2Qvyo-41">
          <mxGeometry x="180" y="493" width="30" height="17" as="geometry" />
        </mxCell>
        <mxCell id="J4MIndiPR7FRYqG2Qvyo-55" style="edgeStyle=orthogonalEdgeStyle;rounded=0;orthogonalLoop=1;jettySize=auto;html=1;entryX=0;entryY=0.5;entryDx=0;entryDy=0;" edge="1" parent="1" source="J4MIndiPR7FRYqG2Qvyo-53" target="J4MIndiPR7FRYqG2Qvyo-50">
          <mxGeometry relative="1" as="geometry" />
        </mxCell>
        <mxCell id="J4MIndiPR7FRYqG2Qvyo-57" style="edgeStyle=orthogonalEdgeStyle;rounded=0;orthogonalLoop=1;jettySize=auto;html=1;entryX=0;entryY=0.5;entryDx=0;entryDy=0;" edge="1" parent="1" source="J4MIndiPR7FRYqG2Qvyo-51" target="J4MIndiPR7FRYqG2Qvyo-56">
          <mxGeometry relative="1" as="geometry" />
        </mxCell>
        <mxCell id="J4MIndiPR7FRYqG2Qvyo-74" style="edgeStyle=orthogonalEdgeStyle;rounded=0;orthogonalLoop=1;jettySize=auto;html=1;entryX=0;entryY=0.5;entryDx=0;entryDy=0;" edge="1" parent="1" source="J4MIndiPR7FRYqG2Qvyo-68" target="J4MIndiPR7FRYqG2Qvyo-58">
          <mxGeometry relative="1" as="geometry" />
        </mxCell>
        <mxCell id="J4MIndiPR7FRYqG2Qvyo-76" style="edgeStyle=orthogonalEdgeStyle;rounded=0;orthogonalLoop=1;jettySize=auto;html=1;entryX=0;entryY=0.5;entryDx=0;entryDy=0;" edge="1" parent="1" source="J4MIndiPR7FRYqG2Qvyo-62" target="J4MIndiPR7FRYqG2Qvyo-56">
          <mxGeometry relative="1" as="geometry">
            <Array as="points">
              <mxPoint x="620" y="615" />
              <mxPoint x="620" y="335" />
            </Array>
          </mxGeometry>
        </mxCell>
      </root>
    </mxGraphModel>
  </diagram>
</mxfile>
